HIERARCHY
ROOT hip
{
	OFFSET 0.000000 0.000000 0.000000 
	CHANNELS 6 Xposition Yposition Zposition Xrotation Zrotation Yrotation
	JOINT abdomen
	{
		OFFSET 0.000000 3.402643 0.000000 
		CHANNELS 3 Xrotation Zrotation Yrotation
		JOINT chest
		{
			OFFSET 0.000000 8.438565 -0.680529 
			CHANNELS 3 Xrotation Zrotation Yrotation
			JOINT neck
			{
				OFFSET 0.000000 10.207942 -0.272212 
				CHANNELS 3 Xrotation Zrotation Yrotation
				JOINT head
				{
					OFFSET 0.000000 3.130431 0.000000 
					CHANNELS 3 Xrotation Zrotation Yrotation
					End Site
					{
						OFFSET 0.000000 3.130435 0.000000 
					}
				}
			}
			JOINT lCollar
			{
				OFFSET 3.470700 6.669187 -0.816635 
				CHANNELS 3 Yrotation Zrotation Xrotation
				JOINT lShldr
				{
					OFFSET 3.198488 0.000000 0.000000 
					CHANNELS 3 Zrotation Yrotation Xrotation
					JOINT lForeArm
					{
						OFFSET 10.139888 0.000000 0.000000 
						CHANNELS 3 Yrotation Zrotation Xrotation
						JOINT lHand
						{
							OFFSET 8.370511 0.000000 0.000000 
							CHANNELS 3 Zrotation Yrotation Xrotation
							End Site
							{
								OFFSET 4.083176 0.000000 0.000000 
							}
						}
					}
				}
			}
			JOINT rCollar
			{
				OFFSET -3.470700 6.669187 -0.816635 
				CHANNELS 3 Yrotation Zrotation Xrotation
				JOINT rShldr
				{
					OFFSET -3.198488 0.000000 0.000000 
					CHANNELS 3 Zrotation Yrotation Xrotation
					JOINT rForeArm
					{
						OFFSET -10.139888 0.000000 0.000000 
						CHANNELS 3 Yrotation Zrotation Xrotation
						JOINT rHand
						{
							OFFSET -8.370511 0.000000 0.000000 
							CHANNELS 3 Zrotation Yrotation Xrotation
							End Site
							{
								OFFSET -4.083176 0.000000 0.000000 
							}
						}
					}
				}
			}
		}
	}
	JOINT lThigh
	{
		OFFSET 5.308129 -1.633274 1.361059 
		CHANNELS 3 Xrotation Zrotation Yrotation
		JOINT lShin
		{
			OFFSET -2.041588 -20.007561 0.000000 
			CHANNELS 3 Xrotation Zrotation Yrotation
			JOINT lFoot
			{
				OFFSET 0.000000 -19.190928 -1.224953 
				CHANNELS 3 Xrotation Yrotation Zrotation
				End Site
				{
					OFFSET 0.000000 -2.449906 4.627600 
				}
			}
		}
	}
	JOINT rThigh
	{
		OFFSET -5.308129 -1.633274 1.361059 
		CHANNELS 3 Xrotation Zrotation Yrotation
		JOINT rShin
		{
			OFFSET 2.041588 -20.007561 0.000000 
			CHANNELS 3 Xrotation Zrotation Yrotation
			JOINT rFoot
			{
				OFFSET 0.000000 -19.190928 -1.224953 
				CHANNELS 3 Xrotation Yrotation Zrotation
				End Site
				{
					OFFSET 0.000000 -2.449906 4.627600 
				}
			}
		}
	}
}
MOTION
Frames: 6
Frame Time: 0.016667
-15.248715 49.335011 -33.283875 13.809247 1.120372 -3.955657 20.551245 -7.322025 18.465815 -6.042978 -9.331594 3.175581 0.000000 0.000000 0.000000 -30.815641 -16.840454 29.349682 1.836211 0.705752 2.498747 -69.577347 38.430473 -2.400297 -125.292305 0.279720 0.502101 56.623253 -29.580128 10.198655 -1.658116 -8.251442 4.546566 72.598351 -4.360048 -4.018044 95.790642 -0.578513 0.146813 -37.300964 -44.943089 29.646753 -41.339737 5.545440 0.331529 39.384132 -4.377133 -4.033353 17.406176 6.903111 -12.324538 -29.975876 -1.621032 -3.820746 28.210953 5.019126 2.778058 -2.429915 3.977224 11.916874 
-15.153664 49.266689 -33.303085 13.867995 0.449129 -1.142543 20.363668 -6.053353 16.716238 -6.170573 -8.551782 3.139160 0.000000 0.000000 0.000000 -29.149717 -16.891748 29.522741 1.227957 1.208011 2.978371 -65.375168 34.670372 1.838458 -128.622742 0.229204 0.432750 62.836128 -31.244097 7.993371 -1.633450 -6.912385 4.404276 72.811600 -7.866442 -2.458213 95.159767 -0.309475 0.283914 -37.625469 -44.494377 29.464539 -42.097534 4.452448 -0.907737 39.986172 -4.263355 -4.258905 18.610201 7.845647 -13.306566 -29.357624 -2.567328 -6.583264 28.354425 4.764884 2.896632 -3.793092 4.342026 11.495811 
-15.300477 49.494110 -33.076550 13.796883 -0.302508 2.216817 20.010357 -4.849333 14.574029 -6.196609 -7.772693 2.995600 0.000000 0.000000 0.000000 -27.468924 -16.809570 29.767447 0.875054 2.067225 3.400000 -63.943829 30.431238 3.702508 -129.842606 0.064491 0.387908 65.637726 -30.820423 7.125481 -1.422424 -4.255322 4.180039 73.749275 -12.845595 -2.363302 94.721306 -0.302221 0.249371 -36.691868 -43.658051 27.912991 -41.866959 3.700248 -1.833832 39.196152 -4.360979 -4.089761 20.369373 8.071164 -13.347306 -28.675047 -3.631315 -9.093693 28.275185 4.852464 2.803563 -3.560664 4.564204 11.306159 
-15.448257 49.722538 -32.843010 13.676802 -1.049696 5.577023 19.613417 -3.662367 12.427763 -6.225390 -6.993418 2.842867 0.000000 0.000000 0.000000 -25.790901 -16.742603 30.024187 0.518809 2.922021 3.832384 -62.754234 26.167925 5.335633 -131.043182 -0.105286 0.333468 68.371223 -30.349293 6.307973 -1.191329 -1.599646 3.955875 74.698868 -17.829952 -2.348149 94.282784 -0.284920 0.215291 -35.798820 -42.816143 26.398014 -41.613430 2.968049 -2.760844 38.405552 -4.458540 -3.909669 22.083738 8.291850 -13.413945 -27.937122 -4.667433 -11.633942 28.204302 4.949681 2.703722 -3.319856 4.800515 11.120925 
-15.737625 50.098816 -31.571602 13.548776 -1.860926 9.125755 18.872854 -2.724628 9.649490 -6.071782 -5.853995 2.463282 0.000000 0.000000 0.000000 -24.736179 -16.451483 31.647091 0.393899 4.677987 4.045854 -64.853386 21.520939 4.074317 -129.286240 -0.081664 0.228807 65.323715 -27.198168 8.290149 -1.156980 0.335983 3.710248 75.504845 -22.088587 -2.059518 94.272865 -0.187463 0.210428 -34.897678 -42.062931 25.441990 -38.674942 3.085305 -2.178357 34.866184 -4.678919 -3.715678 19.189505 7.950082 -11.662898 -26.861439 -5.135472 -13.720366 27.680355 5.111027 2.433037 -2.697578 4.346214 11.476882 
-16.026680 50.475338 -30.298088 13.364851 -2.667785 12.679787 18.070627 -1.832503 6.858816 -5.933308 -4.713682 2.086682 0.000000 0.000000 0.000000 -23.685276 -16.186020 33.294609 0.255347 6.423353 4.273651 -66.794197 16.842684 3.001935 -127.519218 -0.069698 0.118963 62.446247 -23.955385 10.051753 -1.116555 2.280410 3.468913 76.318428 -26.346375 -1.833591 94.272713 -0.080232 0.205327 -34.008442 -41.300903 24.509275 -35.714710 3.172760 -1.568612 31.325249 -4.878719 -3.506346 16.294289 7.474956 -9.927500 -25.764521 -5.562843 -15.843773 27.157339 5.244149 2.203145 -2.076267 3.883778 11.843232 
